<svg xmlns="http://www.w3.org/2000/svg" viewBox="0 0 24 24" fill="#E4405F" width="48px" height="48px">
  <path d="M12 2.163c3.204 0 3.584.012 4.85.07 1.366.062 2.633.334 3.608 1.308.975.975 1.246 2.242 1.308 3.608.058 1.266.07 1.645.07 4.85s-.012 3.584-.07 4.85c-.062 1.366-.334 2.633-1.308 3.608-.975.975-2.242 1.246-3.608 1.308-1.266.058-1.645.07-4.85.07s-3.584-.012-4.85-.07c-1.366-.062-2.633-.334-3.608-1.308-.975-.975-1.246-2.242-1.308-3.608C2.175 15.584 2.163 15.205 2.163 12s.012-3.584.07-4.85c.062-1.366.334-2.633 1.308-3.608C4.516 2.497 5.783 2.225 7.15 2.163 8.416 2.105 8.795 2.163 12 2.163zm0 1.837c-3.197 0-3.567-.012-4.82-.07-.98-.043-1.688.052-2.188.552-.5.5-.595 1.208-.552 2.188.058 1.253.07 1.623.07 4.82s-.012 3.567-.07 4.82c-.043.98.052 1.688.552 2.188.5.5 1.208.595 2.188.552 1.253-.058 1.623-.07 4.82-.07s3.567.012 4.82.07c.98.043 1.688-.052 2.188-.552.5-.5.595-1.208.552-2.188-.058-1.253-.07-1.623-.07-4.82s.012-3.567.07-4.82c.043-.98-.052-1.688-.552-2.188-.5-.5-1.208-.595-2.188-.552-1.253.058-1.623.07-4.82.07zM12 5.838a6.162 6.162 0 1 0 0 12.324 6.162 6.162 0 0 0 0-12.324zm0 10.163a3.839 3.839 0 1 1 0-7.677 3.839 3.839 0 0 1 0 7.677zm6.406-10.845a1.44 1.44 0 1 1-2.882 0 1.44 1.44 0 0 1 2.882 0z"/>
</svg>
