<svg xmlns="http://www.w3.org/2000/svg" viewBox="0 0 24 24" fill="#1DA1F2" width="48px" height="48px">
  <path d="M23.954 4.569c-.885.392-1.83.656-2.825.775a4.932 4.932 0 0 0 2.163-2.724c-.95.555-2.005.959-3.127 1.184a4.92 4.92 0 0 0-8.384 4.482A13.978 13.978 0 0 1 1.671 3.149a4.822 4.822 0 0 0-.666 2.475 4.922 4.922 0 0 0 2.188 4.1 4.9 4.9 0 0 1-2.229-.616v.061a4.923 4.923 0 0 0 3.946 4.827 4.996 4.996 0 0 1-2.224.085 4.935 4.935 0 0 0 4.604 3.417 9.867 9.867 0 0 1-6.102 2.104c-.395 0-.779-.023-1.17-.068a13.945 13.945 0 0 0 7.548 2.212c9.056 0 14.01-7.496 14.01-13.986 0-.213-.004-.425-.014-.636a10.025 10.025 0 0 0 2.459-2.548l-.047-.02z"/>
</svg>
